<?xml version="1.0" encoding="utf-8"?>
<!-- Generator: Adobe Illustrator 16.0.0, SVG Export Plug-In . SVG Version: 6.00 Build 0)  -->
<!DOCTYPE svg PUBLIC "-//W3C//DTD SVG 1.1//EN" "http://www.w3.org/Graphics/SVG/1.1/DTD/svg11.dtd">
<svg version="1.1"
	 id="Layer_1" xmlns:dc="http://purl.org/dc/elements/1.1/" xmlns:cc="http://creativecommons.org/ns#" xmlns:rdf="http://www.w3.org/1999/02/22-rdf-syntax-ns#"
	 xmlns="http://www.w3.org/2000/svg" xmlns:xlink="http://www.w3.org/1999/xlink" x="0px" y="0px" width="2040.203px"
	 height="600.305px" viewBox="0 0 2040.203 600.305" enable-background="new 0 0 2040.203 600.305" xml:space="preserve">
<g id="g3_1_" transform="translate(-18.822 2.708864)">
	<path id="path5_1_" fill="none" stroke="#000000" stroke-width="3" stroke-miterlimit="10" d="M253.957,509.172v-64.979
		c2.33-0.889,4.605-1.953,6.79-3.244c30.979-18.263,34.235-70.149,7.266-115.883c-26.962-45.733-73.935-68-104.911-49.735
		c-30.979,18.267-34.234,70.149-7.271,115.88c4.351,7.38,9.226,14.135,14.466,20.219v48.268l-66.769-38.209V182.175l-23.402-15.449
		c-21.317,38.843-33.442,83.449-33.442,130.883c0,147.386,116.947,267.38,263.155,272.222l0.025-28.077L253.957,509.172z"/>
	<path id="path7_1_" fill="none" stroke="#000000" stroke-width="3" stroke-miterlimit="10" d="M176.41,128.897l40.809,24.186
		c-0.804,6.705-0.831,14.089-0.804,16.626c0.373,35.958,49.069,63.295,102.161,62.744c53.089-0.549,90.896-32.712,90.632-64.354
		c-0.305-35.958-34.88-64.111-87.95-65.694c-17.966-0.535-35.284,3.051-43.17,4.561L248.32,87.924l70.789-40.391l208.684,121.301
		l23.932-13.139c-23.025-37.854-55.632-70.617-96.74-94.287c-127.73-73.539-290.07-32.057-367.217,92.234l23.737,14.99
		L176.41,128.897L176.41,128.897z"/>
	<path id="path9_1_" fill="none" stroke="#000000" stroke-width="3" stroke-miterlimit="10" d="M534.832,260.739l-44.375,23.197
		c-1.607-0.271-11.457-9.489-13.676-10.728c-31.416-17.503-77.665,5.64-103.505,52.02c-25.839,46.376-23.636,99.403,7.778,116.907
		c31.417,17.502,78.196-3.496,104.037-49.873c4.167-7.48,9.732-24.851,12.336-32.445l37.807-21.854l-0.226,82.983l-208.12,121.543
		l0.101,27.384c44.292-1.229,88.91-13.307,129.846-37.273c127.184-74.478,171.634-236.027,101.935-364.643l-23.938,13.146V260.739
		L534.832,260.739z"/>
</g>
<path id="path11_1_" fill="none" stroke="#010101" d="M349.784,534.643"/>
<g>
	<path d="M653.605,561.571V330.598h74.835c28.363,0,46.849,1.157,55.461,3.467c13.236,3.467,24.314,11.005,33.244,22.609
		c8.926,11.606,13.393,26.602,13.393,44.979c0,14.18-2.574,26.104-7.721,35.765c-5.148,9.665-11.684,17.252-19.614,22.768
		c-7.93,5.514-15.994,9.166-24.187,10.951c-11.133,2.205-27.257,3.307-48.366,3.307H700.24v87.128L653.605,561.571L653.605,561.571z
		 M700.24,369.67v65.543h25.521c18.381,0,30.67-1.205,36.869-3.623c6.193-2.416,11.057-6.197,14.572-11.345
		c3.52-5.145,5.278-11.132,5.278-17.962c0-8.4-2.471-15.333-7.405-20.796c-4.938-5.461-11.187-8.876-18.748-10.24
		c-5.57-1.05-16.754-1.577-33.558-1.577H700.24L700.24,369.67z"/>
	<path d="M868.977,561.571V330.598h98.159c24.68,0,42.616,2.076,53.806,6.224c11.182,4.151,20.139,11.53,26.86,22.136
		c6.721,10.611,10.083,22.743,10.083,36.396c0,17.332-5.098,31.645-15.283,42.934c-10.189,11.293-25.42,18.41-45.689,21.35
		c10.084,5.884,18.406,12.345,24.974,19.38c6.563,7.039,15.413,19.536,26.547,37.497l28.204,45.061h-55.776l-33.717-50.261
		c-11.973-17.96-20.164-29.277-24.578-33.951c-4.412-4.673-9.086-7.879-14.021-9.612c-4.939-1.73-12.761-2.599-23.476-2.599h-9.454
		v96.423h-46.639V561.571z M915.615,428.281h34.505c22.371,0,36.34-0.945,41.908-2.836c5.566-1.891,9.925-5.145,13.078-9.769
		c3.149-4.62,4.725-10.398,4.725-17.331c0-7.771-2.071-14.046-6.22-18.828c-4.153-4.776-10.007-7.799-17.569-9.06
		c-3.78-0.522-15.123-0.788-34.031-0.788h-36.396V428.281z"/>
	<path d="M1310.127,561.571h-50.731l-20.167-52.465h-92.324l-19.065,52.465h-49.47l89.963-230.974h49.312L1310.127,561.571z
		 M1224.261,470.189l-31.825-85.709l-31.196,85.709H1224.261z"/>
	<path d="M1442.315,476.65v-38.915h100.521v92.01c-9.772,9.454-23.926,17.779-42.463,24.975
		c-18.536,7.19-37.315,10.791-56.324,10.791c-24.159,0-45.217-5.066-63.18-15.204c-17.961-10.134-31.459-24.63-40.489-43.483
		c-9.035-18.853-13.552-39.361-13.552-61.524c0-24.052,5.043-45.428,15.127-64.123s24.838-33.031,44.271-43.013
		c14.812-7.666,33.245-11.502,55.303-11.502c28.673,0,51.072,6.015,67.198,18.039c16.12,12.029,26.49,28.649,31.114,49.866
		l-46.321,8.665c-3.256-11.344-9.373-20.297-18.355-26.863c-8.977-6.562-20.19-9.847-33.636-9.847
		c-20.379,0-36.577,6.459-48.606,19.38c-12.023,12.918-18.037,32.088-18.037,57.506c0,27.415,6.089,47.977,18.275,61.682
		c12.186,13.709,28.147,20.562,47.895,20.562c9.768,0,19.563-1.913,29.384-5.75c9.822-3.834,18.251-8.48,25.286-13.943v-29.305
		h-53.41V476.65z"/>
	<path d="M1585.532,330.598h46.632v125.098c0,19.852,0.575,32.72,1.733,38.602c1.994,9.452,6.75,17.041,14.262,22.767
		c7.507,5.727,17.775,8.586,30.8,8.586c13.234,0,23.214-2.702,29.935-8.113c6.722-5.409,10.765-12.053,12.132-19.932
		c1.364-7.876,2.049-20.953,2.049-39.229V330.598h46.639v121.315c0,27.729-1.264,47.32-3.783,58.768
		c-2.523,11.45-7.166,21.111-13.944,28.989c-6.771,7.879-15.836,14.155-27.177,18.828c-11.344,4.673-26.153,7.012-44.43,7.012
		c-22.059,0-38.784-2.548-50.18-7.642c-11.397-5.094-20.405-11.711-27.022-19.854c-6.617-8.138-10.978-16.672-13.076-25.603
		c-3.049-13.232-4.565-32.771-4.565-58.608V330.598H1585.532z"/>
	<path d="M1818.866,561.571V330.598h171.261v39.072h-124.625v51.204h115.959v38.916h-115.959v62.865h129.036v38.915H1818.866
		L1818.866,561.571z"/>
	<path fill="none" stroke="#231F20" stroke-width="3" stroke-miterlimit="10" d="M653.918,280.188V49.218h158.341V88.29H700.554
		v54.671h96.427v39.073h-96.427v98.153H653.918z"/>
	<path fill="none" stroke="#231F20" stroke-width="3" stroke-miterlimit="10" d="M1041.186,280.188h-50.732l-20.17-52.468h-92.324
		l-19.062,52.468h-49.47L899.39,49.217h49.312L1041.186,280.188z M955.321,188.806l-31.828-85.705l-31.194,85.705H955.321z"/>
	<path fill="none" stroke="#231F20" stroke-width="3" stroke-miterlimit="10" d="M1066.077,49.218h92.328
		c18.273,0,31.904,0.759,40.882,2.286c8.983,1.522,17.018,4.696,24.108,9.529c7.087,4.832,12.998,11.266,17.724,19.295
		c4.725,8.04,7.092,17.048,7.092,27.026c0,10.816-2.917,20.744-8.744,29.774c-5.831,9.032-13.736,15.811-23.713,20.32
		c14.074,4.099,24.895,11.086,32.457,20.959c7.561,9.871,11.34,21.481,11.34,34.819c0,10.503-2.438,20.718-7.324,30.64
		c-4.881,9.93-11.553,17.863-20.008,23.798c-8.455,5.932-18.885,9.584-31.274,10.942c-7.773,0.844-26.521,1.372-56.246,1.579
		h-78.619V49.218H1066.077z M1112.711,87.66v53.407h30.566c18.169,0,29.463-0.258,33.876-0.788
		c7.979-0.941,14.256-3.702,18.826-8.27c4.567-4.568,6.852-10.581,6.852-18.043c0-7.143-1.968-12.945-5.903-17.406
		c-3.941-4.461-9.795-7.17-17.57-8.115c-4.621-0.524-17.91-0.785-39.859-0.785H1112.711z M1112.711,179.511v61.763h43.17
		c16.808,0,27.469-0.473,31.986-1.416c6.93-1.265,12.578-4.332,16.938-9.22c4.354-4.883,6.536-11.423,6.536-19.616
		c0-6.935-1.683-12.811-5.043-17.643c-3.361-4.832-8.218-8.356-14.574-10.559c-6.352-2.209-20.143-3.311-41.356-3.311
		L1112.711,179.511L1112.711,179.511z"/>
	<path fill="none" stroke="#231F20" stroke-width="3" stroke-miterlimit="10" d="M1389.849,280.188V51.104h46.638v190.169h115.956
		v38.915H1389.849z"/>
	<path fill="none" stroke="#231F20" stroke-width="3" stroke-miterlimit="10" d="M1793.973,280.188h-50.732l-20.166-52.468h-92.328
		l-19.061,52.468h-49.472l89.963-230.971h49.313L1793.973,280.188z M1708.106,188.806l-31.824-85.705l-31.195,85.705H1708.106z"/>
	<path fill="none" stroke="#231F20" stroke-width="3" stroke-miterlimit="10" d="M1818.866,49.218h92.325
		c18.278,0,31.906,0.759,40.886,2.286c8.981,1.522,17.013,4.696,24.107,9.529c7.088,4.832,12.997,11.266,17.722,19.295
		c4.729,8.04,7.091,17.048,7.091,27.026c0,10.816-2.915,20.744-8.743,29.774c-5.832,9.032-13.732,15.811-23.711,20.32
		c14.071,4.099,24.892,11.086,32.455,20.959c7.562,9.871,11.345,21.481,11.345,34.819c0,10.503-2.442,20.718-7.326,30.64
		c-4.884,9.93-11.554,17.863-20.01,23.798c-8.456,5.932-18.884,9.584-31.271,10.942c-7.775,0.844-26.525,1.372-56.249,1.579h-78.619
		L1818.866,49.218L1818.866,49.218z M1865.502,87.66v53.407h30.564c18.17,0,29.464-0.258,33.874-0.788
		c7.979-0.941,14.256-3.702,18.829-8.27c4.564-4.568,6.854-10.581,6.854-18.043c0-7.143-1.972-12.945-5.908-17.406
		c-3.939-4.461-9.796-7.17-17.568-8.115c-4.623-0.524-17.909-0.785-39.861-0.785H1865.502z M1865.502,179.511v61.763h43.172
		c16.802,0,27.461-0.473,31.979-1.416c6.935-1.265,12.576-4.332,16.938-9.22c4.361-4.883,6.537-11.423,6.537-19.616
		c0-6.935-1.681-12.811-5.041-17.643c-3.361-4.832-8.216-8.356-14.574-10.559c-6.354-2.209-20.141-3.311-41.355-3.311
		L1865.502,179.511L1865.502,179.511z"/>
</g>
</svg>
