<?xml version="1.0" encoding="utf-8"?>
<!-- Generator: Adobe Illustrator 16.0.0, SVG Export Plug-In . SVG Version: 6.00 Build 0)  -->
<!DOCTYPE svg PUBLIC "-//W3C//DTD SVG 1.1//EN" "http://www.w3.org/Graphics/SVG/1.1/DTD/svg11.dtd">
<svg version="1.1"
	 id="Layer_1" xmlns:dc="http://purl.org/dc/elements/1.1/" xmlns:cc="http://creativecommons.org/ns#" xmlns:rdf="http://www.w3.org/1999/02/22-rdf-syntax-ns#"
	 xmlns="http://www.w3.org/2000/svg" xmlns:xlink="http://www.w3.org/1999/xlink" x="0px" y="0px" width="566.88px"
	 height="566.88px" viewBox="-0.002 2.753 566.88 566.88" enable-background="new -0.002 2.753 566.88 566.88" xml:space="preserve"
	>
<g id="g3" transform="translate(-18.822 2.708864)">
	<path id="path5" fill="none" stroke="#000000" stroke-width="3" stroke-miterlimit="10" d="M243.069,472.87v-58.98
		c2.117-0.81,4.182-1.775,6.164-2.946c28.12-16.578,31.077-63.678,6.597-105.19c-24.477-41.516-67.115-61.728-95.234-45.149
		c-28.12,16.58-31.076,63.677-6.601,105.19c3.95,6.697,8.375,12.829,13.132,18.352v43.815l-60.608-34.684V176.041l-21.244-14.023
		c-19.352,35.26-30.358,75.75-30.358,118.809c0,133.789,106.159,242.711,238.878,247.107l0.022-25.488L243.069,472.87z"/>
	<path id="path7" fill="none" stroke="#000000" stroke-width="3" stroke-miterlimit="10" d="M172.677,127.678l37.044,21.955
		c-0.729,6.086-0.753,12.788-0.729,15.091c0.339,32.642,44.545,57.455,92.736,56.956s82.513-29.694,82.271-58.417
		c-0.275-32.641-31.664-58.196-79.836-59.633c-16.309-0.487-32.03,2.77-39.188,4.138l-27.018-17.283l64.258-36.664l189.428,110.109
		l21.725-11.926c-20.899-34.364-50.5-64.103-87.816-85.588c-115.945-66.754-263.31-29.1-333.338,83.725l21.548,13.606
		L172.677,127.678L172.677,127.678z"/>
	<path id="path9" fill="none" stroke="#000000" stroke-width="3" stroke-miterlimit="10" d="M498.032,247.358l-40.282,21.056
		c-1.459-0.244-10.4-8.614-12.413-9.737c-28.517-15.887-70.5,5.118-93.954,47.22c-23.456,42.098-21.456,90.233,7.06,106.124
		c28.519,15.886,70.981-3.174,94.439-45.272c3.783-6.792,8.835-22.558,11.196-29.452l34.318-19.839l-0.204,75.327l-188.92,110.33
		l0.092,24.858c40.207-1.115,80.708-12.08,117.866-33.836c115.45-67.604,155.8-214.252,92.532-331.001l-21.73,11.932V247.358
		L498.032,247.358z"/>
</g>
<path id="path11" fill="none" stroke="#010101" d="M358.359,521.376"/>
</svg>
